<svg width="44" height="44" viewBox="0 0 44 44" fill="none" xmlns="http://www.w3.org/2000/svg">
<rect width="44" height="44" rx="22" fill="white"/>
<mask id="path-2-inside-1_2_12" fill="white">
<path d="M11 7L27.3913 21.5L11 36"/>
</mask>
<path d="M14.3129 3.25502L10.5679 -0.0578522L3.94215 7.43211L7.68713 10.745L14.3129 3.25502ZM27.3913 21.5L30.7042 25.245C31.777 24.2959 32.3913 22.9324 32.3913 21.5C32.3913 20.0676 31.777 18.7041 30.7042 17.755L27.3913 21.5ZM7.68713 32.255L3.94215 35.5679L10.5679 43.0579L14.3129 39.745L7.68713 32.255ZM7.68713 10.745L24.0784 25.245L30.7042 17.755L14.3129 3.25502L7.68713 10.745ZM24.0784 17.755L7.68713 32.255L14.3129 39.745L30.7042 25.245L24.0784 17.755Z" fill="#273679" mask="url(#path-2-inside-1_2_12)"/>
<mask id="path-4-inside-2_2_12" fill="white">
<path d="M22.3479 7L38.7392 21.5L22.3479 36"/>
</mask>
<path d="M25.6607 3.25502L21.9158 -0.0578522L15.29 7.43211L19.035 10.745L25.6607 3.25502ZM38.7392 21.5L42.052 25.245C43.1249 24.2959 43.7392 22.9324 43.7392 21.5C43.7392 20.0676 43.1249 18.7041 42.052 17.755L38.7392 21.5ZM19.035 32.255L15.29 35.5679L21.9158 43.0579L25.6607 39.745L19.035 32.255ZM19.035 10.745L35.4263 25.245L42.052 17.755L25.6607 3.25502L19.035 10.745ZM35.4263 17.755L19.035 32.255L25.6607 39.745L42.052 25.245L35.4263 17.755Z" fill="#273679" mask="url(#path-4-inside-2_2_12)"/>
</svg>
